<?xml version="1.0" encoding="utf-8" standalone="no"?>
<!DOCTYPE svg PUBLIC "-//W3C//DTD SVG 1.1//EN"
  "http://www.w3.org/Graphics/SVG/1.1/DTD/svg11.dtd">
<!-- Created with matplotlib (http://matplotlib.org/) -->
<svg height="894pt" version="1.1" viewBox="0 0 1453 894" width="1453pt" xmlns="http://www.w3.org/2000/svg" xmlns:xlink="http://www.w3.org/1999/xlink">
 <defs>
  <style type="text/css">
*{stroke-linecap:square;stroke-linejoin:round;}
  </style>
 </defs>
 <g id="figure_1">
  <g id="patch_1">
   <path d="
M0 894.6
L1453.5 894.6
L1453.5 0
L0 0
z
" style="fill:#ffffff;"/>
  </g>
  <g id="axes_1">
   <g id="patch_2">
    <path d="
M181.688 805.14
L1308.15 805.14
L1308.15 89.46
L181.688 89.46
z
" style="fill:#ffffff;"/>
   </g>
   <g id="line2d_1">
    <path clip-path="url(#pa3e8b67eb4)" d="
M294.334 554.652
L294.334 703.752" style="fill:none;stroke:#0000ff;stroke-dasharray:6.000000,6.000000;stroke-dashoffset:0.0;stroke-linecap:butt;"/>
   </g>
   <g id="line2d_2">
    <path clip-path="url(#pa3e8b67eb4)" d="
M294.334 244.524
L294.334 113.316" style="fill:none;stroke:#0000ff;stroke-dasharray:6.000000,6.000000;stroke-dashoffset:0.0;stroke-linecap:butt;"/>
   </g>
   <g id="line2d_3">
    <path clip-path="url(#pa3e8b67eb4)" d="
M266.172 113.316
L322.495 113.316" style="fill:none;stroke:#000000;"/>
   </g>
   <g id="line2d_4">
    <path clip-path="url(#pa3e8b67eb4)" d="
M266.172 703.752
L322.495 703.752" style="fill:none;stroke:#000000;"/>
   </g>
   <g id="line2d_5">
    <path clip-path="url(#pa3e8b67eb4)" d="
M238.011 554.652
L350.657 554.652
L350.657 244.524
L238.011 244.524
L238.011 554.652" style="fill:none;stroke:#0000ff;"/>
   </g>
   <g id="line2d_6">
    <path clip-path="url(#pa3e8b67eb4)" d="
M238.011 396.606
L350.657 396.606" style="fill:none;stroke:#ff0000;"/>
   </g>
   <g id="line2d_7"/>
   <g id="line2d_8"/>
   <g id="line2d_9">
    <path clip-path="url(#pa3e8b67eb4)" d="
M519.626 554.652
L519.626 703.752" style="fill:none;stroke:#0000ff;stroke-dasharray:6.000000,6.000000;stroke-dashoffset:0.0;stroke-linecap:butt;"/>
   </g>
   <g id="line2d_10">
    <path clip-path="url(#pa3e8b67eb4)" d="
M519.626 256.452
L519.626 113.316" style="fill:none;stroke:#0000ff;stroke-dasharray:6.000000,6.000000;stroke-dashoffset:0.0;stroke-linecap:butt;"/>
   </g>
   <g id="line2d_11">
    <path clip-path="url(#pa3e8b67eb4)" d="
M491.465 113.316
L547.788 113.316" style="fill:none;stroke:#000000;"/>
   </g>
   <g id="line2d_12">
    <path clip-path="url(#pa3e8b67eb4)" d="
M491.465 703.752
L547.788 703.752" style="fill:none;stroke:#000000;"/>
   </g>
   <g id="line2d_13">
    <path clip-path="url(#pa3e8b67eb4)" d="
M463.303 554.652
L575.949 554.652
L575.949 256.452
L463.303 256.452
L463.303 554.652" style="fill:none;stroke:#0000ff;"/>
   </g>
   <g id="line2d_14">
    <path clip-path="url(#pa3e8b67eb4)" d="
M463.303 393.624
L575.949 393.624" style="fill:none;stroke:#ff0000;"/>
   </g>
   <g id="line2d_15"/>
   <g id="line2d_16"/>
   <g id="line2d_17">
    <path clip-path="url(#pa3e8b67eb4)" d="
M744.919 566.58
L744.919 703.752" style="fill:none;stroke:#0000ff;stroke-dasharray:6.000000,6.000000;stroke-dashoffset:0.0;stroke-linecap:butt;"/>
   </g>
   <g id="line2d_18">
    <path clip-path="url(#pa3e8b67eb4)" d="
M744.919 262.416
L744.919 113.316" style="fill:none;stroke:#0000ff;stroke-dasharray:6.000000,6.000000;stroke-dashoffset:0.0;stroke-linecap:butt;"/>
   </g>
   <g id="line2d_19">
    <path clip-path="url(#pa3e8b67eb4)" d="
M716.757 113.316
L773.08 113.316" style="fill:none;stroke:#000000;"/>
   </g>
   <g id="line2d_20">
    <path clip-path="url(#pa3e8b67eb4)" d="
M716.757 703.752
L773.08 703.752" style="fill:none;stroke:#000000;"/>
   </g>
   <g id="line2d_21">
    <path clip-path="url(#pa3e8b67eb4)" d="
M688.596 566.58
L801.242 566.58
L801.242 262.416
L688.596 262.416
L688.596 566.58" style="fill:none;stroke:#0000ff;"/>
   </g>
   <g id="line2d_22">
    <path clip-path="url(#pa3e8b67eb4)" d="
M688.596 402.57
L801.242 402.57" style="fill:none;stroke:#ff0000;"/>
   </g>
   <g id="line2d_23"/>
   <g id="line2d_24"/>
   <g id="line2d_25">
    <path clip-path="url(#pa3e8b67eb4)" d="
M970.211 566.58
L970.211 703.752" style="fill:none;stroke:#0000ff;stroke-dasharray:6.000000,6.000000;stroke-dashoffset:0.0;stroke-linecap:butt;"/>
   </g>
   <g id="line2d_26">
    <path clip-path="url(#pa3e8b67eb4)" d="
M970.211 247.506
L970.211 113.316" style="fill:none;stroke:#0000ff;stroke-dasharray:6.000000,6.000000;stroke-dashoffset:0.0;stroke-linecap:butt;"/>
   </g>
   <g id="line2d_27">
    <path clip-path="url(#pa3e8b67eb4)" d="
M942.05 113.316
L998.373 113.316" style="fill:none;stroke:#000000;"/>
   </g>
   <g id="line2d_28">
    <path clip-path="url(#pa3e8b67eb4)" d="
M942.05 703.752
L998.373 703.752" style="fill:none;stroke:#000000;"/>
   </g>
   <g id="line2d_29">
    <path clip-path="url(#pa3e8b67eb4)" d="
M913.888 566.58
L1026.53 566.58
L1026.53 247.506
L913.888 247.506
L913.888 566.58" style="fill:none;stroke:#0000ff;"/>
   </g>
   <g id="line2d_30">
    <path clip-path="url(#pa3e8b67eb4)" d="
M913.888 411.516
L1026.53 411.516" style="fill:none;stroke:#ff0000;"/>
   </g>
   <g id="line2d_31"/>
   <g id="line2d_32"/>
   <g id="line2d_33">
    <path clip-path="url(#pa3e8b67eb4)" d="
M1195.5 566.58
L1195.5 703.752" style="fill:none;stroke:#0000ff;stroke-dasharray:6.000000,6.000000;stroke-dashoffset:0.0;stroke-linecap:butt;"/>
   </g>
   <g id="line2d_34">
    <path clip-path="url(#pa3e8b67eb4)" d="
M1195.5 262.416
L1195.5 113.316" style="fill:none;stroke:#0000ff;stroke-dasharray:6.000000,6.000000;stroke-dashoffset:0.0;stroke-linecap:butt;"/>
   </g>
   <g id="line2d_35">
    <path clip-path="url(#pa3e8b67eb4)" d="
M1167.34 113.316
L1223.67 113.316" style="fill:none;stroke:#000000;"/>
   </g>
   <g id="line2d_36">
    <path clip-path="url(#pa3e8b67eb4)" d="
M1167.34 703.752
L1223.67 703.752" style="fill:none;stroke:#000000;"/>
   </g>
   <g id="line2d_37">
    <path clip-path="url(#pa3e8b67eb4)" d="
M1139.18 566.58
L1251.83 566.58
L1251.83 262.416
L1139.18 262.416
L1139.18 566.58" style="fill:none;stroke:#0000ff;"/>
   </g>
   <g id="line2d_38">
    <path clip-path="url(#pa3e8b67eb4)" d="
M1139.18 411.516
L1251.83 411.516" style="fill:none;stroke:#ff0000;"/>
   </g>
   <g id="line2d_39"/>
   <g id="line2d_40"/>
   <g id="matplotlib.axis_1">
    <g id="xtick_1">
     <g id="line2d_41">
      <defs>
       <path d="
M0 0
L0 -4" id="mcb557df647" style="stroke:#000000;stroke-linecap:butt;stroke-width:0.5;"/>
      </defs>
      <g>
       <use style="stroke:#000000;stroke-linecap:butt;stroke-width:0.5;" x="294.33375" xlink:href="#mcb557df647" y="805.14"/>
      </g>
     </g>
     <g id="line2d_42">
      <defs>
       <path d="
M0 0
L0 4" id="mdad270ee8e" style="stroke:#000000;stroke-linecap:butt;stroke-width:0.5;"/>
      </defs>
      <g>
       <use style="stroke:#000000;stroke-linecap:butt;stroke-width:0.5;" x="294.33375" xlink:href="#mdad270ee8e" y="89.46"/>
      </g>
     </g>
     <g id="text_1">
      <!-- ('B', 'j', 'w') -->
      <defs>
       <path id="BitstreamVeraSans-Roman-20"/>
       <path d="
M17.9219 72.9062
L17.9219 45.7969
L9.625 45.7969
L9.625 72.9062
z
" id="BitstreamVeraSans-Roman-27"/>
       <path d="
M8.01562 75.875
L15.8281 75.875
Q23.1406 64.3594 26.7812 53.3125
Q30.4219 42.2812 30.4219 31.3906
Q30.4219 20.4531 26.7812 9.375
Q23.1406 -1.70312 15.8281 -13.1875
L8.01562 -13.1875
Q14.5 -2 17.7031 9.0625
Q20.9062 20.125 20.9062 31.3906
Q20.9062 42.6719 17.7031 53.6562
Q14.5 64.6562 8.01562 75.875" id="BitstreamVeraSans-Roman-29"/>
       <path d="
M31 75.875
Q24.4688 64.6562 21.2812 53.6562
Q18.1094 42.6719 18.1094 31.3906
Q18.1094 20.125 21.3125 9.0625
Q24.5156 -2 31 -13.1875
L23.1875 -13.1875
Q15.875 -1.70312 12.2344 9.375
Q8.59375 20.4531 8.59375 31.3906
Q8.59375 42.2812 12.2031 53.3125
Q15.8281 64.3594 23.1875 75.875
z
" id="BitstreamVeraSans-Roman-28"/>
       <path d="
M9.42188 54.6875
L18.4062 54.6875
L18.4062 -0.984375
Q18.4062 -11.4219 14.4219 -16.1094
Q10.4531 -20.7969 1.60938 -20.7969
L-1.8125 -20.7969
L-1.8125 -13.1875
L0.59375 -13.1875
Q5.71875 -13.1875 7.5625 -10.8125
Q9.42188 -8.45312 9.42188 -0.984375
z

M9.42188 75.9844
L18.4062 75.9844
L18.4062 64.5938
L9.42188 64.5938
z
" id="BitstreamVeraSans-Roman-6a"/>
       <path d="
M11.7188 12.4062
L22.0156 12.4062
L22.0156 4
L14.0156 -11.625
L7.71875 -11.625
L11.7188 4
z
" id="BitstreamVeraSans-Roman-2c"/>
       <path d="
M19.6719 34.8125
L19.6719 8.10938
L35.5 8.10938
Q43.4531 8.10938 47.2812 11.4062
Q51.125 14.7031 51.125 21.4844
Q51.125 28.3281 47.2812 31.5625
Q43.4531 34.8125 35.5 34.8125
z

M19.6719 64.7969
L19.6719 42.8281
L34.2812 42.8281
Q41.5 42.8281 45.0312 45.5312
Q48.5781 48.25 48.5781 53.8125
Q48.5781 59.3281 45.0312 62.0625
Q41.5 64.7969 34.2812 64.7969
z

M9.8125 72.9062
L35.0156 72.9062
Q46.2969 72.9062 52.3906 68.2188
Q58.5 63.5312 58.5 54.8906
Q58.5 48.1875 55.375 44.2344
Q52.25 40.2812 46.1875 39.3125
Q53.4688 37.75 57.5 32.7812
Q61.5312 27.8281 61.5312 20.4062
Q61.5312 10.6406 54.8906 5.3125
Q48.25 0 35.9844 0
L9.8125 0
z
" id="BitstreamVeraSans-Roman-42"/>
       <path d="
M4.20312 54.6875
L13.1875 54.6875
L24.4219 12.0156
L35.5938 54.6875
L46.1875 54.6875
L57.4219 12.0156
L68.6094 54.6875
L77.5938 54.6875
L63.2812 0
L52.6875 0
L40.9219 44.8281
L29.1094 0
L18.5 0
z
" id="BitstreamVeraSans-Roman-77"/>
      </defs>
      <g transform="translate(261.9553125 818.258125)scale(0.12 -0.12)">
       <use xlink:href="#BitstreamVeraSans-Roman-28"/>
       <use x="39.013671875" xlink:href="#BitstreamVeraSans-Roman-27"/>
       <use x="66.50390625" xlink:href="#BitstreamVeraSans-Roman-42"/>
       <use x="135.107421875" xlink:href="#BitstreamVeraSans-Roman-27"/>
       <use x="162.59765625" xlink:href="#BitstreamVeraSans-Roman-2c"/>
       <use x="194.384765625" xlink:href="#BitstreamVeraSans-Roman-20"/>
       <use x="226.171875" xlink:href="#BitstreamVeraSans-Roman-27"/>
       <use x="253.662109375" xlink:href="#BitstreamVeraSans-Roman-6a"/>
       <use x="281.4453125" xlink:href="#BitstreamVeraSans-Roman-27"/>
       <use x="308.935546875" xlink:href="#BitstreamVeraSans-Roman-2c"/>
       <use x="340.72265625" xlink:href="#BitstreamVeraSans-Roman-20"/>
       <use x="372.509765625" xlink:href="#BitstreamVeraSans-Roman-27"/>
       <use x="400.0" xlink:href="#BitstreamVeraSans-Roman-77"/>
       <use x="481.787109375" xlink:href="#BitstreamVeraSans-Roman-27"/>
       <use x="509.27734375" xlink:href="#BitstreamVeraSans-Roman-29"/>
      </g>
     </g>
    </g>
    <g id="xtick_2">
     <g id="line2d_43">
      <g>
       <use style="stroke:#000000;stroke-linecap:butt;stroke-width:0.5;" x="519.62625" xlink:href="#mcb557df647" y="805.14"/>
      </g>
     </g>
     <g id="line2d_44">
      <g>
       <use style="stroke:#000000;stroke-linecap:butt;stroke-width:0.5;" x="519.62625" xlink:href="#mdad270ee8e" y="89.46"/>
      </g>
     </g>
     <g id="text_2">
      <!-- ('A', 'k', 'y') -->
      <defs>
       <path d="
M32.1719 -5.07812
Q28.375 -14.8438 24.75 -17.8125
Q21.1406 -20.7969 15.0938 -20.7969
L7.90625 -20.7969
L7.90625 -13.2812
L13.1875 -13.2812
Q16.8906 -13.2812 18.9375 -11.5156
Q21 -9.76562 23.4844 -3.21875
L25.0938 0.875
L2.98438 54.6875
L12.5 54.6875
L29.5938 11.9219
L46.6875 54.6875
L56.2031 54.6875
z
" id="BitstreamVeraSans-Roman-79"/>
       <path d="
M34.1875 63.1875
L20.7969 26.9062
L47.6094 26.9062
z

M28.6094 72.9062
L39.7969 72.9062
L67.5781 0
L57.3281 0
L50.6875 18.7031
L17.8281 18.7031
L11.1875 0
L0.78125 0
z
" id="BitstreamVeraSans-Roman-41"/>
       <path d="
M9.07812 75.9844
L18.1094 75.9844
L18.1094 31.1094
L44.9219 54.6875
L56.3906 54.6875
L27.3906 29.1094
L57.625 0
L45.9062 0
L18.1094 26.7031
L18.1094 0
L9.07812 0
z
" id="BitstreamVeraSans-Roman-6b"/>
      </defs>
      <g transform="translate(486.808125 818.258125)scale(0.12 -0.12)">
       <use xlink:href="#BitstreamVeraSans-Roman-28"/>
       <use x="39.013671875" xlink:href="#BitstreamVeraSans-Roman-27"/>
       <use x="66.50390625" xlink:href="#BitstreamVeraSans-Roman-41"/>
       <use x="134.912109375" xlink:href="#BitstreamVeraSans-Roman-27"/>
       <use x="162.40234375" xlink:href="#BitstreamVeraSans-Roman-2c"/>
       <use x="194.189453125" xlink:href="#BitstreamVeraSans-Roman-20"/>
       <use x="225.9765625" xlink:href="#BitstreamVeraSans-Roman-27"/>
       <use x="253.466796875" xlink:href="#BitstreamVeraSans-Roman-6b"/>
       <use x="311.376953125" xlink:href="#BitstreamVeraSans-Roman-27"/>
       <use x="338.8671875" xlink:href="#BitstreamVeraSans-Roman-2c"/>
       <use x="370.654296875" xlink:href="#BitstreamVeraSans-Roman-20"/>
       <use x="402.44140625" xlink:href="#BitstreamVeraSans-Roman-27"/>
       <use x="429.931640625" xlink:href="#BitstreamVeraSans-Roman-79"/>
       <use x="489.111328125" xlink:href="#BitstreamVeraSans-Roman-27"/>
       <use x="516.6015625" xlink:href="#BitstreamVeraSans-Roman-29"/>
      </g>
     </g>
    </g>
    <g id="xtick_3">
     <g id="line2d_45">
      <g>
       <use style="stroke:#000000;stroke-linecap:butt;stroke-width:0.5;" x="744.91875" xlink:href="#mcb557df647" y="805.14"/>
      </g>
     </g>
     <g id="line2d_46">
      <g>
       <use style="stroke:#000000;stroke-linecap:butt;stroke-width:0.5;" x="744.91875" xlink:href="#mdad270ee8e" y="89.46"/>
      </g>
     </g>
     <g id="text_3">
      <!-- ('B', 'j', 'x') -->
      <defs>
       <path d="
M54.8906 54.6875
L35.1094 28.0781
L55.9062 0
L45.3125 0
L29.3906 21.4844
L13.4844 0
L2.875 0
L24.125 28.6094
L4.6875 54.6875
L15.2812 54.6875
L29.7812 35.2031
L44.2812 54.6875
z
" id="BitstreamVeraSans-Roman-78"/>
      </defs>
      <g transform="translate(713.8959375 818.258125)scale(0.12 -0.12)">
       <use xlink:href="#BitstreamVeraSans-Roman-28"/>
       <use x="39.013671875" xlink:href="#BitstreamVeraSans-Roman-27"/>
       <use x="66.50390625" xlink:href="#BitstreamVeraSans-Roman-42"/>
       <use x="135.107421875" xlink:href="#BitstreamVeraSans-Roman-27"/>
       <use x="162.59765625" xlink:href="#BitstreamVeraSans-Roman-2c"/>
       <use x="194.384765625" xlink:href="#BitstreamVeraSans-Roman-20"/>
       <use x="226.171875" xlink:href="#BitstreamVeraSans-Roman-27"/>
       <use x="253.662109375" xlink:href="#BitstreamVeraSans-Roman-6a"/>
       <use x="281.4453125" xlink:href="#BitstreamVeraSans-Roman-27"/>
       <use x="308.935546875" xlink:href="#BitstreamVeraSans-Roman-2c"/>
       <use x="340.72265625" xlink:href="#BitstreamVeraSans-Roman-20"/>
       <use x="372.509765625" xlink:href="#BitstreamVeraSans-Roman-27"/>
       <use x="400.0" xlink:href="#BitstreamVeraSans-Roman-78"/>
       <use x="459.1796875" xlink:href="#BitstreamVeraSans-Roman-27"/>
       <use x="486.669921875" xlink:href="#BitstreamVeraSans-Roman-29"/>
      </g>
     </g>
    </g>
    <g id="xtick_4">
     <g id="line2d_47">
      <g>
       <use style="stroke:#000000;stroke-linecap:butt;stroke-width:0.5;" x="970.21125" xlink:href="#mcb557df647" y="805.14"/>
      </g>
     </g>
     <g id="line2d_48">
      <g>
       <use style="stroke:#000000;stroke-linecap:butt;stroke-width:0.5;" x="970.21125" xlink:href="#mdad270ee8e" y="89.46"/>
      </g>
     </g>
     <g id="text_4">
      <!-- ('A', 'i', 'z') -->
      <defs>
       <path d="
M9.42188 54.6875
L18.4062 54.6875
L18.4062 0
L9.42188 0
z

M9.42188 75.9844
L18.4062 75.9844
L18.4062 64.5938
L9.42188 64.5938
z
" id="BitstreamVeraSans-Roman-69"/>
       <path d="
M5.51562 54.6875
L48.1875 54.6875
L48.1875 46.4844
L14.4062 7.17188
L48.1875 7.17188
L48.1875 0
L4.29688 0
L4.29688 8.20312
L38.0938 47.5156
L5.51562 47.5156
z
" id="BitstreamVeraSans-Roman-7a"/>
      </defs>
      <g transform="translate(939.6028125 818.258125)scale(0.12 -0.12)">
       <use xlink:href="#BitstreamVeraSans-Roman-28"/>
       <use x="39.013671875" xlink:href="#BitstreamVeraSans-Roman-27"/>
       <use x="66.50390625" xlink:href="#BitstreamVeraSans-Roman-41"/>
       <use x="134.912109375" xlink:href="#BitstreamVeraSans-Roman-27"/>
       <use x="162.40234375" xlink:href="#BitstreamVeraSans-Roman-2c"/>
       <use x="194.189453125" xlink:href="#BitstreamVeraSans-Roman-20"/>
       <use x="225.9765625" xlink:href="#BitstreamVeraSans-Roman-27"/>
       <use x="253.466796875" xlink:href="#BitstreamVeraSans-Roman-69"/>
       <use x="281.25" xlink:href="#BitstreamVeraSans-Roman-27"/>
       <use x="308.740234375" xlink:href="#BitstreamVeraSans-Roman-2c"/>
       <use x="340.52734375" xlink:href="#BitstreamVeraSans-Roman-20"/>
       <use x="372.314453125" xlink:href="#BitstreamVeraSans-Roman-27"/>
       <use x="399.8046875" xlink:href="#BitstreamVeraSans-Roman-7a"/>
       <use x="452.294921875" xlink:href="#BitstreamVeraSans-Roman-27"/>
       <use x="479.78515625" xlink:href="#BitstreamVeraSans-Roman-29"/>
      </g>
     </g>
    </g>
    <g id="xtick_5">
     <g id="line2d_49">
      <g>
       <use style="stroke:#000000;stroke-linecap:butt;stroke-width:0.5;" x="1195.50375" xlink:href="#mcb557df647" y="805.14"/>
      </g>
     </g>
     <g id="line2d_50">
      <g>
       <use style="stroke:#000000;stroke-linecap:butt;stroke-width:0.5;" x="1195.50375" xlink:href="#mdad270ee8e" y="89.46"/>
      </g>
     </g>
     <g id="text_5">
      <!-- ('B', 'k', 'z') -->
      <g transform="translate(1163.075625 818.258125)scale(0.12 -0.12)">
       <use xlink:href="#BitstreamVeraSans-Roman-28"/>
       <use x="39.013671875" xlink:href="#BitstreamVeraSans-Roman-27"/>
       <use x="66.50390625" xlink:href="#BitstreamVeraSans-Roman-42"/>
       <use x="135.107421875" xlink:href="#BitstreamVeraSans-Roman-27"/>
       <use x="162.59765625" xlink:href="#BitstreamVeraSans-Roman-2c"/>
       <use x="194.384765625" xlink:href="#BitstreamVeraSans-Roman-20"/>
       <use x="226.171875" xlink:href="#BitstreamVeraSans-Roman-27"/>
       <use x="253.662109375" xlink:href="#BitstreamVeraSans-Roman-6b"/>
       <use x="311.572265625" xlink:href="#BitstreamVeraSans-Roman-27"/>
       <use x="339.0625" xlink:href="#BitstreamVeraSans-Roman-2c"/>
       <use x="370.849609375" xlink:href="#BitstreamVeraSans-Roman-20"/>
       <use x="402.63671875" xlink:href="#BitstreamVeraSans-Roman-27"/>
       <use x="430.126953125" xlink:href="#BitstreamVeraSans-Roman-7a"/>
       <use x="482.6171875" xlink:href="#BitstreamVeraSans-Roman-27"/>
       <use x="510.107421875" xlink:href="#BitstreamVeraSans-Roman-29"/>
      </g>
     </g>
    </g>
   </g>
   <g id="matplotlib.axis_2">
    <g id="ytick_1">
     <g id="line2d_51">
      <defs>
       <path d="
M0 0
L4 0" id="mc8fcea1516" style="stroke:#000000;stroke-linecap:butt;stroke-width:0.5;"/>
      </defs>
      <g>
       <use style="stroke:#000000;stroke-linecap:butt;stroke-width:0.5;" x="181.6875" xlink:href="#mc8fcea1516" y="805.14"/>
      </g>
     </g>
     <g id="line2d_52">
      <defs>
       <path d="
M0 0
L-4 0" id="m0d5b0a6425" style="stroke:#000000;stroke-linecap:butt;stroke-width:0.5;"/>
      </defs>
      <g>
       <use style="stroke:#000000;stroke-linecap:butt;stroke-width:0.5;" x="1308.15" xlink:href="#m0d5b0a6425" y="805.14"/>
      </g>
     </g>
     <g id="text_6">
      <!-- 20 -->
      <defs>
       <path d="
M19.1875 8.29688
L53.6094 8.29688
L53.6094 0
L7.32812 0
L7.32812 8.29688
Q12.9375 14.1094 22.625 23.8906
Q32.3281 33.6875 34.8125 36.5312
Q39.5469 41.8438 41.4219 45.5312
Q43.3125 49.2188 43.3125 52.7812
Q43.3125 58.5938 39.2344 62.25
Q35.1562 65.9219 28.6094 65.9219
Q23.9688 65.9219 18.8125 64.3125
Q13.6719 62.7031 7.8125 59.4219
L7.8125 69.3906
Q13.7656 71.7812 18.9375 73
Q24.125 74.2188 28.4219 74.2188
Q39.75 74.2188 46.4844 68.5469
Q53.2188 62.8906 53.2188 53.4219
Q53.2188 48.9219 51.5312 44.8906
Q49.8594 40.875 45.4062 35.4062
Q44.1875 33.9844 37.6406 27.2188
Q31.1094 20.4531 19.1875 8.29688" id="BitstreamVeraSans-Roman-32"/>
       <path d="
M31.7812 66.4062
Q24.1719 66.4062 20.3281 58.9062
Q16.5 51.4219 16.5 36.375
Q16.5 21.3906 20.3281 13.8906
Q24.1719 6.39062 31.7812 6.39062
Q39.4531 6.39062 43.2812 13.8906
Q47.125 21.3906 47.125 36.375
Q47.125 51.4219 43.2812 58.9062
Q39.4531 66.4062 31.7812 66.4062
M31.7812 74.2188
Q44.0469 74.2188 50.5156 64.5156
Q56.9844 54.8281 56.9844 36.375
Q56.9844 17.9688 50.5156 8.26562
Q44.0469 -1.42188 31.7812 -1.42188
Q19.5312 -1.42188 13.0625 8.26562
Q6.59375 17.9688 6.59375 36.375
Q6.59375 54.8281 13.0625 64.5156
Q19.5312 74.2188 31.7812 74.2188" id="BitstreamVeraSans-Roman-30"/>
      </defs>
      <g transform="translate(164.09375 809.5078125)scale(0.12 -0.12)">
       <use xlink:href="#BitstreamVeraSans-Roman-32"/>
       <use x="63.623046875" xlink:href="#BitstreamVeraSans-Roman-30"/>
      </g>
     </g>
    </g>
    <g id="ytick_2">
     <g id="line2d_53">
      <g>
       <use style="stroke:#000000;stroke-linecap:butt;stroke-width:0.5;" x="181.6875" xlink:href="#mc8fcea1516" y="685.86"/>
      </g>
     </g>
     <g id="line2d_54">
      <g>
       <use style="stroke:#000000;stroke-linecap:butt;stroke-width:0.5;" x="1308.15" xlink:href="#m0d5b0a6425" y="685.86"/>
      </g>
     </g>
     <g id="text_7">
      <!-- 40 -->
      <defs>
       <path d="
M37.7969 64.3125
L12.8906 25.3906
L37.7969 25.3906
z

M35.2031 72.9062
L47.6094 72.9062
L47.6094 25.3906
L58.0156 25.3906
L58.0156 17.1875
L47.6094 17.1875
L47.6094 0
L37.7969 0
L37.7969 17.1875
L4.89062 17.1875
L4.89062 26.7031
z
" id="BitstreamVeraSans-Roman-34"/>
      </defs>
      <g transform="translate(163.80125 690.2278125)scale(0.12 -0.12)">
       <use xlink:href="#BitstreamVeraSans-Roman-34"/>
       <use x="63.623046875" xlink:href="#BitstreamVeraSans-Roman-30"/>
      </g>
     </g>
    </g>
    <g id="ytick_3">
     <g id="line2d_55">
      <g>
       <use style="stroke:#000000;stroke-linecap:butt;stroke-width:0.5;" x="181.6875" xlink:href="#mc8fcea1516" y="566.58"/>
      </g>
     </g>
     <g id="line2d_56">
      <g>
       <use style="stroke:#000000;stroke-linecap:butt;stroke-width:0.5;" x="1308.15" xlink:href="#m0d5b0a6425" y="566.58"/>
      </g>
     </g>
     <g id="text_8">
      <!-- 60 -->
      <defs>
       <path d="
M33.0156 40.375
Q26.375 40.375 22.4844 35.8281
Q18.6094 31.2969 18.6094 23.3906
Q18.6094 15.5312 22.4844 10.9531
Q26.375 6.39062 33.0156 6.39062
Q39.6562 6.39062 43.5312 10.9531
Q47.4062 15.5312 47.4062 23.3906
Q47.4062 31.2969 43.5312 35.8281
Q39.6562 40.375 33.0156 40.375
M52.5938 71.2969
L52.5938 62.3125
Q48.875 64.0625 45.0938 64.9844
Q41.3125 65.9219 37.5938 65.9219
Q27.8281 65.9219 22.6719 59.3281
Q17.5312 52.7344 16.7969 39.4062
Q19.6719 43.6562 24.0156 45.9219
Q28.375 48.1875 33.5938 48.1875
Q44.5781 48.1875 50.9531 41.5156
Q57.3281 34.8594 57.3281 23.3906
Q57.3281 12.1562 50.6875 5.35938
Q44.0469 -1.42188 33.0156 -1.42188
Q20.3594 -1.42188 13.6719 8.26562
Q6.98438 17.9688 6.98438 36.375
Q6.98438 53.6562 15.1875 63.9375
Q23.3906 74.2188 37.2031 74.2188
Q40.9219 74.2188 44.7031 73.4844
Q48.4844 72.75 52.5938 71.2969" id="BitstreamVeraSans-Roman-36"/>
      </defs>
      <g transform="translate(164.0525 570.9478125)scale(0.12 -0.12)">
       <use xlink:href="#BitstreamVeraSans-Roman-36"/>
       <use x="63.623046875" xlink:href="#BitstreamVeraSans-Roman-30"/>
      </g>
     </g>
    </g>
    <g id="ytick_4">
     <g id="line2d_57">
      <g>
       <use style="stroke:#000000;stroke-linecap:butt;stroke-width:0.5;" x="181.6875" xlink:href="#mc8fcea1516" y="447.3"/>
      </g>
     </g>
     <g id="line2d_58">
      <g>
       <use style="stroke:#000000;stroke-linecap:butt;stroke-width:0.5;" x="1308.15" xlink:href="#m0d5b0a6425" y="447.3"/>
      </g>
     </g>
     <g id="text_9">
      <!-- 80 -->
      <defs>
       <path d="
M31.7812 34.625
Q24.75 34.625 20.7188 30.8594
Q16.7031 27.0938 16.7031 20.5156
Q16.7031 13.9219 20.7188 10.1562
Q24.75 6.39062 31.7812 6.39062
Q38.8125 6.39062 42.8594 10.1719
Q46.9219 13.9688 46.9219 20.5156
Q46.9219 27.0938 42.8906 30.8594
Q38.875 34.625 31.7812 34.625
M21.9219 38.8125
Q15.5781 40.375 12.0312 44.7188
Q8.5 49.0781 8.5 55.3281
Q8.5 64.0625 14.7188 69.1406
Q20.9531 74.2188 31.7812 74.2188
Q42.6719 74.2188 48.875 69.1406
Q55.0781 64.0625 55.0781 55.3281
Q55.0781 49.0781 51.5312 44.7188
Q48 40.375 41.7031 38.8125
Q48.8281 37.1562 52.7969 32.3125
Q56.7812 27.4844 56.7812 20.5156
Q56.7812 9.90625 50.3125 4.23438
Q43.8438 -1.42188 31.7812 -1.42188
Q19.7344 -1.42188 13.25 4.23438
Q6.78125 9.90625 6.78125 20.5156
Q6.78125 27.4844 10.7812 32.3125
Q14.7969 37.1562 21.9219 38.8125
M18.3125 54.3906
Q18.3125 48.7344 21.8438 45.5625
Q25.3906 42.3906 31.7812 42.3906
Q38.1406 42.3906 41.7188 45.5625
Q45.3125 48.7344 45.3125 54.3906
Q45.3125 60.0625 41.7188 63.2344
Q38.1406 66.4062 31.7812 66.4062
Q25.3906 66.4062 21.8438 63.2344
Q18.3125 60.0625 18.3125 54.3906" id="BitstreamVeraSans-Roman-38"/>
      </defs>
      <g transform="translate(164.028125 451.6678125)scale(0.12 -0.12)">
       <use xlink:href="#BitstreamVeraSans-Roman-38"/>
       <use x="63.623046875" xlink:href="#BitstreamVeraSans-Roman-30"/>
      </g>
     </g>
    </g>
    <g id="ytick_5">
     <g id="line2d_59">
      <g>
       <use style="stroke:#000000;stroke-linecap:butt;stroke-width:0.5;" x="181.6875" xlink:href="#mc8fcea1516" y="328.02"/>
      </g>
     </g>
     <g id="line2d_60">
      <g>
       <use style="stroke:#000000;stroke-linecap:butt;stroke-width:0.5;" x="1308.15" xlink:href="#m0d5b0a6425" y="328.02"/>
      </g>
     </g>
     <g id="text_10">
      <!-- 100 -->
      <defs>
       <path d="
M12.4062 8.29688
L28.5156 8.29688
L28.5156 63.9219
L10.9844 60.4062
L10.9844 69.3906
L28.4219 72.9062
L38.2812 72.9062
L38.2812 8.29688
L54.3906 8.29688
L54.3906 0
L12.4062 0
z
" id="BitstreamVeraSans-Roman-31"/>
      </defs>
      <g transform="translate(156.8975 332.3878125)scale(0.12 -0.12)">
       <use xlink:href="#BitstreamVeraSans-Roman-31"/>
       <use x="63.623046875" xlink:href="#BitstreamVeraSans-Roman-30"/>
       <use x="127.24609375" xlink:href="#BitstreamVeraSans-Roman-30"/>
      </g>
     </g>
    </g>
    <g id="ytick_6">
     <g id="line2d_61">
      <g>
       <use style="stroke:#000000;stroke-linecap:butt;stroke-width:0.5;" x="181.6875" xlink:href="#mc8fcea1516" y="208.74"/>
      </g>
     </g>
     <g id="line2d_62">
      <g>
       <use style="stroke:#000000;stroke-linecap:butt;stroke-width:0.5;" x="1308.15" xlink:href="#m0d5b0a6425" y="208.74"/>
      </g>
     </g>
     <g id="text_11">
      <!-- 120 -->
      <g transform="translate(156.8975 213.1078125)scale(0.12 -0.12)">
       <use xlink:href="#BitstreamVeraSans-Roman-31"/>
       <use x="63.623046875" xlink:href="#BitstreamVeraSans-Roman-32"/>
       <use x="127.24609375" xlink:href="#BitstreamVeraSans-Roman-30"/>
      </g>
     </g>
    </g>
    <g id="ytick_7">
     <g id="line2d_63">
      <g>
       <use style="stroke:#000000;stroke-linecap:butt;stroke-width:0.5;" x="181.6875" xlink:href="#mc8fcea1516" y="89.46"/>
      </g>
     </g>
     <g id="line2d_64">
      <g>
       <use style="stroke:#000000;stroke-linecap:butt;stroke-width:0.5;" x="1308.15" xlink:href="#m0d5b0a6425" y="89.46"/>
      </g>
     </g>
     <g id="text_12">
      <!-- 140 -->
      <g transform="translate(156.8975 93.8278125)scale(0.12 -0.12)">
       <use xlink:href="#BitstreamVeraSans-Roman-31"/>
       <use x="63.623046875" xlink:href="#BitstreamVeraSans-Roman-34"/>
       <use x="127.24609375" xlink:href="#BitstreamVeraSans-Roman-30"/>
      </g>
     </g>
    </g>
   </g>
   <g id="patch_3">
    <path d="
M181.688 89.46
L1308.15 89.46" style="fill:none;stroke:#000000;"/>
   </g>
   <g id="patch_4">
    <path d="
M1308.15 805.14
L1308.15 89.46" style="fill:none;stroke:#000000;"/>
   </g>
   <g id="patch_5">
    <path d="
M181.688 805.14
L1308.15 805.14" style="fill:none;stroke:#000000;"/>
   </g>
   <g id="patch_6">
    <path d="
M181.688 805.14
L181.688 89.46" style="fill:none;stroke:#000000;"/>
   </g>
  </g>
 </g>
 <defs>
  <clipPath id="pa3e8b67eb4">
   <rect height="715.68" width="1126.4625" x="181.6875" y="89.46"/>
  </clipPath>
 </defs>
</svg>
